Coordinates
version=1
nRows=29
nColumns=22
inDegrees=yes

Units are S.I. units (second, meters, Newtons, ...)
If the header above contains a line with 'inDegrees', this indicates whether rotational values are in degrees (yes) or radians (no).

endheader
time	pelvis_tilt	pelvis_list	pelvis_rotation	pelvis_tx	pelvis_ty	pelvis_tz	hip_flexion_r	hip_adduction_r	hip_rotation_r	knee_angle_r	ankle_angle_r	subtalar_angle_r	hip_flexion_l	hip_adduction_l	hip_rotation_l	knee_angle_l	ankle_angle_l	subtalar_angle_l	lumbar_extension	lumbar_bending	lumbar_rotation
      2.80000000	      3.62079132	      1.63864916	      1.32149501	     -0.82539455	      0.93738648	      0.10576663	      5.36836464	     -4.58241405	     -2.05790946	    -57.68140527	     -0.41037908	      6.19643172	      7.82936689	      6.82090080	     -6.89870779	    -24.11364388	     20.53252904	     -9.89422611	    -12.78467766	     -0.29200110	     -8.86177516
      2.81000000	      3.66786930	      1.45963441	      1.93702253	     -0.81589067	      0.93897387	      0.10395499	      7.12152523	     -4.65773713	     -2.71291961	    -57.86971852	      0.66990024	      5.59408980	      6.63414116	      6.73754978	     -6.41904045	    -23.22002624	     20.55214847	     -9.54141815	    -12.80194144	      0.08416326	     -9.49155799
      2.82000000	      3.73924869	      1.27102161	      2.56036361	     -0.80638151	      0.94044509	      0.10221943	      8.77023084	     -4.70206429	     -3.35978744	    -57.77586645	      1.72682475	      4.80473844	      5.42185437	      6.60815512	     -5.97783477	    -22.33710332	     20.66638439	     -9.14246788	    -12.83930639	      0.45884164	    -10.08630896
      2.83000000	      3.82151473	      1.08582576	      3.21695388	     -0.79686943	      0.94181043	      0.10050113	     10.31457216	     -4.73957554	     -4.03465829	    -57.39286173	      2.65871812	      4.13246447	      4.19623219	      6.46540856	     -5.46951843	    -21.43825822	     20.70099858	     -8.79676553	    -12.88374446	      0.82480828	    -10.67374756
      2.84000000	      3.93309783	      0.89668489	      3.86473044	     -0.78731638	      0.94305188	      0.09889784	     11.73465285	     -4.74656038	     -4.69714362	    -56.73034846	      3.53808238	      3.40884347	      2.94853279	      6.28330833	     -4.99680949	    -20.55003118	     20.79454450	     -8.45200403	    -12.95683060	      1.18174256	    -11.22075676
      2.85000000	      4.06614228	      0.70947867	      4.50008443	     -0.77771508	      0.94414697	      0.09740770	     13.03729372	     -4.73085695	     -5.34998534	    -55.79875776	      4.34374846	      2.76571471	      1.68963256	      6.07267385	     -4.54804822	    -19.67635483	     20.91943937	     -8.12870087	    -13.05155065	      1.52393636	    -11.72347495
      2.86000000	      4.21533557	      0.52802855	      5.11646020	     -0.76805767	      0.94507199	      0.09604536	     14.22714740	     -4.69521270	     -5.99510388	    -54.60957796	      5.05604093	      2.27132287	      0.42924744	      5.83845383	     -4.13042502	    -18.82545861	     21.06858951	     -7.82499319	    -13.16304189	      1.84524386	    -12.19266705
      2.87000000	      4.37589196	      0.35673571	      5.70655476	     -0.75834960	      0.94580059	      0.09481244	     15.30942965	     -4.64352617	     -6.62647470	    -53.17574869	      5.66666813	      1.91489771	     -0.81881020	      5.58610271	     -3.75539690	    -18.01423810	     21.25111948	     -7.52775092	    -13.29114535	      2.14199423	    -12.62006247
      2.88000000	      4.54045682	      0.20180274	      6.27244845	     -0.74858416	      0.94631044	      0.09370224	     16.28768695	     -4.58094264	     -7.24459351	    -51.50659644	      6.13836932	      1.70916769	     -2.04548985	      5.32574657	     -3.42354718	    -17.24814118	     21.46217959	     -7.24265110	    -13.42765029	      2.40699926	    -13.02346987
      2.89000000	      4.66762002	      0.06418344	      6.83465864	     -0.73878095	      0.94650172	      0.09267053	     17.20915499	     -4.52899225	     -7.88538862	    -49.62845930	      6.49025981	      1.67490933	     -3.17889652	      5.06418243	     -3.12786557	    -16.58044588	     21.74253645	     -7.01569544	    -13.52459032	      2.63879388	    -13.42632300
      2.90000000	      4.82466663	     -0.04768027	      7.35151807	     -0.72889075	      0.94650912	      0.09176784	     17.99456998	     -4.46453804	     -8.48598570	    -47.53279981	      6.64763497	      1.70603628	     -4.34532800	      4.81368329	     -2.85199268	    -15.91908925	     22.01068459	     -6.82005502	    -13.66296953	      2.83044934	    -13.78118230
      2.91000000	      4.97687849	     -0.12767486	      7.83978659	     -0.71892647	      0.94624608	      0.09095460	     18.68851647	     -4.40876643	     -9.07065972	    -45.25314052	      6.64853164	      1.86525878	     -5.49057217	      4.58678736	     -2.59104351	    -15.30224871	     22.28729143	     -6.73511471	    -13.80253212	      2.97379274	    -14.11814922
      2.92000000	      5.11272395	     -0.17997185	      8.31261259	     -0.70889554	      0.94568595	      0.09019328	     19.30322753	     -4.36759412	     -9.66625267	    -42.80671955	      6.50393462	      2.19329699	     -6.59751154	      4.38568482	     -2.29648188	    -14.74180593	     22.58451568	     -6.83086337	    -13.92944989	      3.07738286	    -14.44820672
      2.93000000	      5.25044941	     -0.18761769	      8.73251073	     -0.69876539	      0.94485190	      0.08952684	     19.83116591	     -4.34232916	    -10.22904423	    -40.22540477	      6.26425033	      2.83295781	     -7.72071518	      4.23369244	     -1.97748579	    -14.18339189	     22.89526501	     -7.23956839	    -14.06566174	      3.11522809	    -14.72827830
      2.94000000	      5.32873542	     -0.17317860	      9.18227139	     -0.68859350	      0.94363064	      0.08881491	     20.33199417	     -4.35996936	    -10.89170521	    -37.52978230	      5.90382375	      3.53052036	     -8.72353028	      4.10168176	     -1.62103672	    -13.74924805	     23.27499830	     -7.76505972	    -14.13633436	      3.12763610	    -15.06583539
      2.95000000	      5.37895492	     -0.12273544	      9.61815423	     -0.67833899	      0.94208295	      0.08813368	     20.78242034	     -4.40687246	    -11.59701123	    -34.75187566	      5.47502043	      4.31693464	     -9.66864695	      4.00334779	     -1.24083540	    -13.39499009	     23.70188400	     -8.38391969	    -14.18018704	      3.09212197	    -15.42002732
      2.96000000	      5.40718579	     -0.03727232	     10.05156860	     -0.66798066	      0.94023176	      0.08748111	     21.17902043	     -4.48082537	    -12.35986950	    -31.92568437	      4.99749697	      5.17257675	    -10.56416536	      3.93102968	     -0.85129281	    -13.12170675	     24.18676786	     -9.03046830	    -14.20120030	      3.00761258	    -15.80034793
      2.97000000	      5.41551993	      0.08173173	     10.47297520	     -0.65751232	      0.93809433	      0.08687980	     21.53937546	     -4.57206836	    -13.14576770	    -29.10996132	      4.48875059	      6.07262381	    -11.41054828	      3.88023365	     -0.47174428	    -12.93565631	     24.72765214	     -9.63667381	    -14.20298259	      2.87582282	    -16.19618655
      2.98000000	      5.39509789	      0.22249747	     10.86642398	     -0.64690743	      0.93568901	      0.08635172	     21.89404305	     -4.66021053	    -13.89632517	    -26.36572916	      3.94098925	      7.05678583	    -12.22080629	      3.84319848	     -0.11070617	    -12.79184293	     25.31952353	    -10.18176597	    -14.17228339	      2.70805913	    -16.58284960
      2.99000000	      5.37899363	      0.36898179	     11.24536164	     -0.63618757	      0.93310722	      0.08592956	     22.20812663	     -4.71272990	    -14.55181899	    -23.71689880	      3.40817124	      8.01299498	    -13.00143551	      3.78785623	      0.20492028	    -12.73734844	     25.95810004	    -10.57244983	    -14.14980849	      2.52359541	    -16.99012652
      3.00000000	      5.36849002	      0.51075195	     11.60571412	     -0.62536912	      0.93039413	      0.08561699	     22.49345558	     -4.72365362	    -15.07113606	    -21.21376417	      2.89597795	      8.92815572	    -13.74099956	      3.70430596	      0.45921245	    -12.78947574	     26.61761653	    -10.81314167	    -14.14060290	      2.33780978	    -17.39324608
      3.01000000	      5.35055324	      0.62907416	     11.91104416	     -0.61435777	      0.92756886	      0.08543796	     22.78124352	     -4.67144813	    -15.38739393	    -18.91346884	      2.44079506	      9.89388760	    -14.48580741	      3.59242379	      0.67817322	    -12.83242899	     27.28858387	    -10.92676094	    -14.10998900	      2.16493493	    -17.75438284
      3.02000000	      5.34933540	      0.71170668	     12.18083109	     -0.60317165	      0.92470653	      0.08535182	     23.04679261	     -4.55996455	    -15.52498623	    -16.85629461	      2.09352586	     10.78768609	    -15.22617280	      3.43015795	      0.82093027	    -12.92525641	     27.94519169	    -10.90235667	    -14.08731122	      2.03220223	    -18.09948481
      3.03000000	      5.37889326	      0.74772150	     12.42784080	     -0.59181382	      0.92187249	      0.08532964	     23.26880859	     -4.38739270	    -15.50207020	    -15.06358351	      1.88009934	     11.56241846	    -15.95464742	      3.20504017	      0.89121489	    -13.10577448	     28.56546494	    -10.77946589	    -14.08543938	      1.95829012	    -18.42341417
      3.04000000	      5.43122224	      0.71763858	     12.64234225	     -0.58021618	      0.91908299	      0.08533174	     23.46995552	     -4.14948287	    -15.36497506	    -13.59087590	      1.80234214	     12.21381381	    -16.68941097	      2.90942775	      0.90738044	    -13.32273957	     29.15605777	    -10.58818977	    -14.07816842	      1.97221151	    -18.71225528
      3.05000000	      5.49396333	      0.61710070	     12.83057617	     -0.56834621	      0.91634058	      0.08535229	     23.67764991	     -3.85494959	    -15.16571172	    -12.49700762	      1.86102504	     12.61485268	    -17.40795222	      2.54156439	      0.85951880	    -13.59390264	     29.73391643	    -10.40464227	    -14.03881961	      2.07327003	    -18.99417784
      3.06000000	      5.59913819	      0.45061571	     12.99928158	     -0.55621195	      0.91374187	      0.08536085	     23.83803505	     -3.50105954	    -14.93907001	    -11.75949619	      2.02856962	     12.93919368	    -18.14031212	      2.10384982	      0.79204483	    -13.93159701	     30.21509496	    -10.19060420	    -14.01274041	      2.26501643	    -19.21032562
      3.07000000	      5.69881163	      0.22404876	     13.14634147	     -0.54378712	      0.91123869	      0.08534150	     24.01821846	     -3.10684779	    -14.70913725	    -11.42442122	      2.25235758	     13.08780282	    -18.84255331	      1.61992819	      0.73885164	    -14.32726631	     30.56234159	    -10.00673172	    -13.93532996	      2.53471458	    -19.40950866
      3.08000000	      5.84626166	     -0.09448426	     13.26813186	     -0.53094721	      0.90894838	      0.08531167	     24.12720170	     -2.61264499	    -14.54345172	    -11.42150001	      2.39324994	     13.09432834	    -19.59811251	      1.03747941	      0.61483534	    -14.72401244	     30.75604609	     -9.68653667	    -13.83934385	      2.92668318	    -19.59410006
